<svg width="22" height="22" viewBox="0 0 22 22" fill="none" xmlns="http://www.w3.org/2000/svg">
<path d="M11.1182 1.83333C11.6649 1.83357 12.1892 2.05084 12.5757 2.43741L15.1534 5.01325L17.7274 7.59091C18.1133 7.97775 18.3306 8.50208 18.3306 9.04841V18.1042C18.3306 18.6512 18.1133 19.1758 17.7265 19.5626C17.3397 19.9494 16.8151 20.1667 16.2681 20.1667H10.2575C10.648 19.7606 10.9817 19.2977 11.2447 18.7926L16.2681 18.7917C16.4504 18.7917 16.6253 18.7192 16.7542 18.5903C16.8831 18.4614 16.9556 18.2865 16.9556 18.1042L16.9547 9.16941H13.0625C12.54 9.16949 12.037 8.97129 11.655 8.61483C11.273 8.25837 11.0406 7.77022 11.0046 7.249L11 7.10783L10.9991 3.20833H5.72916C5.54682 3.20833 5.37195 3.28076 5.24302 3.40969C5.11409 3.53862 5.04166 3.71349 5.04166 3.89583V10.1539C4.56938 10.2268 4.10768 10.3567 3.66666 10.5407V3.89583C3.66666 3.34882 3.88396 2.82421 4.27075 2.43742C4.65754 2.05063 5.18215 1.83333 5.72916 1.83333H11.1182ZM12.375 4.18L12.3759 7.10875C12.3759 7.45708 12.6344 7.744 12.9699 7.78983L13.0634 7.79625L15.9885 7.79533L12.375 4.18Z" fill="white"/>
<path d="M10.7911 15.3479L9.66453 15.0116C9.58664 14.7396 9.47952 14.4769 9.34504 14.228L9.89658 13.1955C9.91728 13.1566 9.92485 13.112 9.91819 13.0683C9.91152 13.0247 9.89097 12.9844 9.85959 12.9534L9.05582 12.1463C9.02481 12.1149 8.9845 12.0943 8.94088 12.0877C8.89726 12.081 8.85265 12.0886 8.81368 12.1093L7.78795 12.6574C7.5366 12.5164 7.27043 12.4036 6.99428 12.3211L6.65797 11.208C6.64375 11.167 6.61687 11.1315 6.58122 11.1067C6.54556 11.0819 6.50296 11.0691 6.45955 11.0701H5.32284C5.27917 11.0703 5.23671 11.0844 5.20162 11.1104C5.16654 11.1364 5.14067 11.173 5.12779 11.2147L4.79148 12.3245C4.51303 12.4066 4.24457 12.5194 3.99108 12.6608L2.98217 12.116C2.9432 12.0953 2.89859 12.0877 2.85497 12.0944C2.81135 12.101 2.77104 12.1216 2.74003 12.153L1.92281 12.95C1.89142 12.981 1.87087 13.0214 1.86421 13.065C1.85754 13.1086 1.86512 13.1532 1.88582 13.1922L2.43063 14.2011C2.2894 14.4535 2.17661 14.7208 2.09433 14.9981L0.981159 15.3344C0.939431 15.3473 0.902905 15.3732 0.876895 15.4083C0.850886 15.4433 0.836751 15.4858 0.836548 15.5295V16.6662C0.836751 16.7099 0.850886 16.7523 0.876895 16.7874C0.902905 16.8225 0.939431 16.8484 0.981159 16.8612L2.10105 17.1975C2.18423 17.4702 2.29701 17.733 2.43736 17.9811L1.88582 19.0371C1.86512 19.0761 1.85754 19.1207 1.86421 19.1643C1.87087 19.2079 1.89142 19.2483 1.92281 19.2793L2.72658 20.083C2.75759 20.1144 2.7979 20.135 2.84152 20.1416C2.88514 20.1483 2.92974 20.1407 2.96872 20.12L4.0079 19.5651C4.25372 19.6978 4.51303 19.8038 4.78139 19.8813L5.1177 21.0146C5.13059 21.0563 5.15645 21.0929 5.19153 21.1189C5.22662 21.1449 5.26908 21.159 5.31276 21.1592H6.44946C6.49313 21.159 6.5356 21.1449 6.57068 21.1189C6.60577 21.0929 6.63163 21.0563 6.64452 21.0146L6.98082 19.8779C7.2469 19.8 7.50393 19.694 7.7476 19.5618L8.7935 20.12C8.83247 20.1407 8.87708 20.1483 8.9207 20.1416C8.96432 20.135 9.00463 20.1144 9.03564 20.083L9.83941 19.2793C9.8708 19.2483 9.89135 19.2079 9.89801 19.1643C9.90468 19.1207 9.8971 19.0761 9.8764 19.0371L9.31814 17.9946C9.45177 17.75 9.55887 17.4918 9.63763 17.2245L10.771 16.8881C10.8127 16.8753 10.8492 16.8494 10.8752 16.8143C10.9012 16.7792 10.9154 16.7368 10.9156 16.6931V15.5463C10.9176 15.5045 10.9067 15.4631 10.8845 15.4276C10.8622 15.3921 10.8297 15.3643 10.7911 15.3479ZM5.8912 17.9643C5.52537 17.9643 5.16775 17.8558 4.86357 17.6526C4.5594 17.4494 4.32232 17.1605 4.18232 16.8225C4.04233 16.4845 4.0057 16.1126 4.07707 15.7538C4.14844 15.395 4.3246 15.0654 4.58328 14.8067C4.84196 14.5481 5.17154 14.3719 5.53035 14.3005C5.88915 14.2291 6.26105 14.2658 6.59904 14.4058C6.93702 14.5458 7.2259 14.7829 7.42914 15.087C7.63239 15.3912 7.74087 15.7488 7.74087 16.1147C7.74087 16.6052 7.546 17.0757 7.19911 17.4226C6.85223 17.7694 6.38176 17.9643 5.8912 17.9643Z" fill="white"/>
</svg>
